# xmcd CD database file
#
# Track frame offsets:
#	150
#	14440
#	27577
#	43177
#	56957
#	70507
#	86165
#	99325
#	113067
#	140327
#	153990
#
# Disc length: 2225 seconds
#
# Revision: 0
# Processed by: cddbd v1.4PL0 Copyright (c) Steve Scherf et al.
# Submitted via: CDex 1.50beta9
#
DISCID=9108af0b
DTITLE=Steve Haggard - Make Your Move
DYEAR=1997
DGENRE=Country
TTITLE0=Life is a Mystery
TTITLE1=One used Wedding Ring
TTITLE2=Little bit of Rain
TTITLE3=Unbreakable Heart
TTITLE4=Whenever you´re Ready
TTITLE5=All up to you (Make your Move)
TTITLE6=Wine and Memories
TTITLE7=Black Dog
TTITLE8=Home to Nashville Blues
TTITLE9=I can never be blue
TTITLE10=Blue River Falls
EXTD=YEAR: 1997
EXTT0=
EXTT1=
EXTT2=
EXTT3=
EXTT4=
EXTT5=
EXTT6=
EXTT7=
EXTT8=
EXTT9=
EXTT10=
PLAYORDER=
